<mxfile host="app.diagrams.net" modified="2024-06-08T14:27:54.966Z" agent="Mozilla/5.0 (Macintosh; Intel Mac OS X 10_15_7) AppleWebKit/537.36 (KHTML, like Gecko) Chrome/125.0.0.0 Safari/537.36" etag="BtmkxWydFdYuu5r5wTLK" version="24.5.2" type="github">
  <diagram name="Page-1" id="C9jLN2DpHzkTzg0tFA4g">
    <mxGraphModel dx="956" dy="640" grid="1" gridSize="10" guides="1" tooltips="1" connect="1" arrows="1" fold="1" page="1" pageScale="1" pageWidth="827" pageHeight="1169" math="0" shadow="0">
      <root>
        <mxCell id="0" />
        <mxCell id="1" parent="0" />
        <mxCell id="EpsHPpFX5rDBm0fRQGSb-3" value="" style="rounded=0;whiteSpace=wrap;html=1;" vertex="1" parent="1">
          <mxGeometry x="80" y="200" width="400" height="240" as="geometry" />
        </mxCell>
        <mxCell id="EpsHPpFX5rDBm0fRQGSb-4" value="Presentation Layer" style="rounded=0;whiteSpace=wrap;html=1;rotation=-90;" vertex="1" parent="1">
          <mxGeometry x="-72.5" y="297.5" width="235" height="40" as="geometry" />
        </mxCell>
        <mxCell id="EpsHPpFX5rDBm0fRQGSb-6" value="Backend" style="rounded=0;whiteSpace=wrap;html=1;rotation=-90;" vertex="1" parent="1">
          <mxGeometry x="-16" y="490" width="120" height="40" as="geometry" />
        </mxCell>
        <mxCell id="EpsHPpFX5rDBm0fRQGSb-7" value="" style="rounded=0;whiteSpace=wrap;html=1;" vertex="1" parent="1">
          <mxGeometry x="80" y="450" width="400" height="120" as="geometry" />
        </mxCell>
        <mxCell id="EpsHPpFX5rDBm0fRQGSb-1" value="Society Gate" style="shape=cylinder3;whiteSpace=wrap;html=1;boundedLbl=1;backgroundOutline=1;size=15;fillColor=#dae8fc;strokeColor=#6c8ebf;" vertex="1" parent="1">
          <mxGeometry x="384" y="470" width="60" height="80" as="geometry" />
        </mxCell>
        <mxCell id="EpsHPpFX5rDBm0fRQGSb-8" value="Society City" style="shape=cylinder3;whiteSpace=wrap;html=1;boundedLbl=1;backgroundOutline=1;size=15;fillColor=#dae8fc;strokeColor=#6c8ebf;" vertex="1" parent="1">
          <mxGeometry x="310" y="470" width="60" height="80" as="geometry" />
        </mxCell>
        <mxCell id="EpsHPpFX5rDBm0fRQGSb-9" value="Apache" style="rounded=0;whiteSpace=wrap;html=1;" vertex="1" parent="1">
          <mxGeometry x="80" y="160" width="400" height="30" as="geometry" />
        </mxCell>
        <mxCell id="EpsHPpFX5rDBm0fRQGSb-10" value="Load Balancer" style="rounded=0;whiteSpace=wrap;html=1;" vertex="1" parent="1">
          <mxGeometry x="80" y="120" width="400" height="30" as="geometry" />
        </mxCell>
        <mxCell id="EpsHPpFX5rDBm0fRQGSb-11" value="API Controller" style="rounded=1;whiteSpace=wrap;html=1;" vertex="1" parent="1">
          <mxGeometry x="104" y="470" width="120" height="60" as="geometry" />
        </mxCell>
      </root>
    </mxGraphModel>
  </diagram>
</mxfile>
